<svg width="462" height="618" viewBox="0 0 462 618" fill="none" xmlns="http://www.w3.org/2000/svg">
<g opacity="0.9">
<path d="M411.031 139.792L462 110.202V416.73L410.165 446.864L411.031 139.792Z" fill="#E26D6D"/>
<path d="M411.031 139.792L410.165 446.864L219.243 336.662L220.121 29.5899L411.031 139.792Z" fill="#FF7B7B"/>
<path d="M445.682 109.695L410.005 130.497L232.595 27.9089L268.173 7.23065L445.682 109.695Z" fill="#F4F6F9"/>
<path opacity="0.2" d="M452.753 162.101L418.955 181.618L419.561 394.778L453.359 375.262L452.753 162.101Z" fill="#C1C4D3"/>
<path d="M462 110.202L454.311 114.676L418.72 135.354L411.018 139.829L402.402 134.848L220.109 29.6146L227.811 25.1402L411.191 127.333L444.124 108.805L263.389 4.47432L271.078 0L453.371 105.233L462 110.202Z" fill="#FF7B7B"/>
<path d="M359.196 169.938L410.165 140.348V446.876L358.331 477.01L359.196 169.938Z" fill="#6540C1"/>
<path d="M359.196 169.938L358.331 477.009L167.409 366.808L168.287 59.7358L359.196 169.938Z" fill="#8C50FF"/>
<path d="M393.847 139.841L358.17 160.643L180.76 58.055L216.338 37.3767L393.847 139.841Z" fill="#F4F6F9"/>
<path opacity="0.2" d="M400.918 192.247L367.12 211.764L367.726 424.924L401.524 405.408L400.918 192.247Z" fill="#C1C4D3"/>
<path d="M410.165 140.348L402.476 144.822L366.885 165.5L359.184 169.975L350.567 164.994L168.274 59.7605L175.976 55.2862L359.357 157.479L392.29 138.951L211.554 34.6203L219.244 30.1459L401.537 135.379L410.165 140.348Z" fill="#7040CC"/>
<path d="M420.203 287.568L426.125 284.119L425.198 611.758L419.264 615.207L420.203 287.568Z" fill="#252935"/>
<path d="M222.433 166.539L18.7411 48.958L12.8073 52.4064L216.499 169.987L420.203 287.568L426.125 284.119L222.433 166.539Z" fill="#2B303F"/>
<path d="M420.204 287.568L419.264 615.207L215.572 497.626L182.837 470.669L177.262 475.502L11.8801 380.033L12.8073 52.4064L216.499 169.987L420.204 287.568Z" fill="#3A4151"/>
<path d="M221.419 183.509L0.865354 90.5247L0 397.584L150.893 484.685C153.475 486.173 156.345 487.095 159.311 487.389C162.277 487.684 165.272 487.344 168.097 486.392C170.922 485.441 173.512 483.899 175.695 481.87C177.878 479.841 179.605 477.371 180.76 474.624V501.94L381.831 618L382.697 310.928L221.419 183.509Z" fill="#F4F6F9"/>
<path d="M180.76 185.066V501.939L381.831 618L382.697 310.928L180.76 185.066Z" fill="#DADCE5"/>
<path d="M359.827 519.491L359.814 524.979L220.653 444.651L220.665 439.163L359.827 519.491Z" fill="#C1C4D3"/>
<path d="M359.901 494.758L359.876 500.246L220.727 419.919L220.739 414.431L359.901 494.758Z" fill="#C1C4D3"/>
<path d="M360.037 445.294L360.024 450.769L220.863 370.442L220.888 364.966L360.037 445.294Z" fill="#C1C4D3"/>
<path d="M360.111 420.549L360.086 426.049L220.937 345.722L220.949 340.234L360.111 420.549Z" fill="#C1C4D3"/>
<path d="M360.173 395.829L360.16 401.304L221.011 320.977L221.024 315.501L360.173 395.829Z" fill="#C1C4D3"/>
<path d="M359.962 470.026L359.95 475.501L220.801 395.186L220.814 389.698L359.962 470.026Z" fill="#C1C4D3"/>
<path d="M359.752 544.223L359.74 549.711L220.591 469.383L220.603 463.896L359.752 544.223Z" fill="#C1C4D3"/>
<path d="M359.69 568.968L359.666 574.443L220.517 494.116L220.529 488.64L359.69 568.968Z" fill="#C1C4D3"/>
<path d="M360.321 346.352L360.296 351.852L221.147 271.525L221.16 266.037L360.321 346.352Z" fill="#C1C4D3"/>
<path d="M360.383 321.62L360.37 327.107L221.222 246.78L221.234 241.292L360.383 321.62Z" fill="#C1C4D3"/>
<path d="M360.247 371.097L360.234 376.572L221.073 296.244L221.098 290.769L360.247 371.097Z" fill="#C1C4D3"/>
<path d="M159.101 453.352L159.089 458.84L19.9402 378.513L19.9526 373.037L159.101 453.352Z" fill="#C1C4D3"/>
<path d="M159.176 428.62L159.163 434.095L20.002 353.768L20.0268 348.292L159.176 428.62Z" fill="#C1C4D3"/>
<path d="M159.386 354.423L159.373 359.898L20.2121 279.571L20.2245 274.095L159.386 354.423Z" fill="#C1C4D3"/>
<path d="M159.67 255.494L159.645 260.969L20.4965 180.642L20.5089 175.166L159.67 255.494Z" fill="#C1C4D3"/>
<path d="M159.732 230.749L159.719 236.237L20.5706 155.909L20.583 150.421L159.732 230.749Z" fill="#C1C4D3"/>
<path d="M159.806 206.016L159.794 211.504L20.6325 131.177L20.6572 125.689L159.806 206.016Z" fill="#C1C4D3"/>
<path d="M159.596 280.226L159.584 285.702L20.4224 205.374L20.4471 199.898L159.596 280.226Z" fill="#C1C4D3"/>
<path d="M159.312 379.143L159.299 384.631L20.1504 304.316L20.1628 298.815L159.312 379.143Z" fill="#C1C4D3"/>
<path d="M159.46 329.691L159.435 335.166L20.2865 254.839L20.2988 249.363L159.46 329.691Z" fill="#C1C4D3"/>
<path d="M159.522 304.946L159.509 310.434L20.3605 230.119L20.3729 224.618L159.522 304.946Z" fill="#C1C4D3"/>
<path d="M159.25 403.888L159.225 409.376L20.0763 329.048L20.0886 323.56L159.25 403.888Z" fill="#C1C4D3"/>
<path d="M0.865303 90.5247L30.5346 73.2949L191.379 166.526L186.113 169.592C178.707 173.887 170.297 176.149 161.735 176.149C153.172 176.149 144.762 173.887 137.356 169.592L0.865303 90.5247Z" fill="#E6E9EF"/>
<path d="M191.354 166.526L412.341 293.711L382.672 310.928L191.416 200.85C188.39 199.125 185.872 196.63 184.12 193.62C182.367 190.609 181.44 187.189 181.434 183.706C181.428 180.223 182.342 176.799 184.084 173.783C185.826 170.766 188.334 168.263 191.354 166.526Z" fill="#E6E9EF"/>
<path d="M382.697 310.928L412.341 293.711L411.463 600.782L381.831 618L382.697 310.928Z" fill="#C1C4D3"/>
<path d="M247.145 179.393C243.35 185.684 239.345 189.911 234.251 195.189C233.522 195.931 231.668 195.288 230.864 195.053C229.418 194.633 228.577 194.064 227.007 194.682C226.13 195.094 225.279 195.561 224.46 196.079C223.196 196.797 221.834 197.33 220.418 197.661C220.862 196.808 221.357 195.982 221.901 195.189C224.226 191.803 227.625 189.442 230.258 186.278C233.089 182.914 235.671 179.349 237.985 175.611C241.199 169.011 244.697 158.023 246.144 153.672C248.616 146.33 250.928 135.466 252.696 130.373C254.463 125.281 257.641 123.514 260.768 122.957C264.477 122.302 266.714 123.415 265.824 127.741C264.279 135.354 256.763 164.796 247.145 179.393Z" fill="#FFCEA9"/>
<path d="M255.811 296.751C252.696 299.223 248.109 296.974 247.874 297.208C244.217 300.593 240.383 303.782 236.39 306.763C234.449 308.295 231.445 310.335 231.977 313.264C232.953 318.505 241.347 316.898 244.512 315.291C247.677 313.684 250.273 311.027 253.264 309.111C255.403 307.776 257.505 307.096 257.838 304.39C258.049 302.82 256.355 296.64 255.811 296.751Z" fill="#38226D"/>
<path d="M257.801 303.364C257.393 305.947 255.329 306.664 253.19 307.974C250.149 309.878 247.466 312.597 244.302 314.154C241.372 315.637 234.066 317.108 232.014 313.363C233.126 318.418 241.384 316.836 244.512 315.242C247.64 313.647 250.273 310.978 253.264 309.062C255.403 307.727 257.505 307.047 257.838 304.34C257.859 304.014 257.846 303.687 257.801 303.364Z" fill="#9C73FF"/>
<path d="M224.238 278.57C221.135 281.103 215.683 278.335 215.448 278.57C212.213 281.858 208.787 284.954 205.188 287.84C203.247 289.36 200.243 291.399 200.774 294.341C201.751 299.582 210.145 297.962 213.322 296.368C216.499 294.774 219.07 292.104 222.074 290.188C224.213 288.866 226.315 288.173 226.648 285.479C226.846 283.897 224.794 278.508 224.238 278.57Z" fill="#38226D"/>
<path d="M226.55 284.799C226.142 287.395 224.077 288.099 221.939 289.422C218.897 291.313 216.215 294.044 213.05 295.602C210.12 297.085 202.814 298.556 200.762 294.811C201.887 299.866 210.133 298.284 213.26 296.702C216.388 295.12 219.021 292.438 222.013 290.522C224.151 289.199 226.253 288.507 226.587 285.813C226.609 285.474 226.597 285.135 226.55 284.799Z" fill="#9C73FF"/>
<path d="M297.422 197.018C300.871 218.562 291.241 226.596 278.879 231.181C269.929 234.469 257.134 239.537 257.134 239.537C257.134 239.537 257.307 244.271 257.406 254.876C257.492 264.22 256.268 298.346 256.268 298.346C256.268 298.346 251.113 301.015 246.737 298.234C246.737 298.234 241.718 272.093 240.655 260.314C239.208 244.32 236.761 233.864 237.577 230.427C238.294 227.387 255.774 218.797 261.312 214.199L224.708 226.472C225.435 230.443 225.787 234.474 225.758 238.511C225.425 251.192 224.732 278.644 224.732 278.644C224.732 278.644 219.701 282.278 215.424 278.718C215.424 278.718 206.214 224.334 207.326 217.165C208.39 210.33 240.704 196.376 246.329 191.568C247.325 190.763 248.479 190.175 249.716 189.843C250.953 189.511 252.246 189.442 253.512 189.639L297.422 197.018Z" fill="#E26D6D"/>
<path d="M284.677 115.912C284.677 115.912 284.157 126.171 284.38 127.036C284.603 127.901 289.09 130.954 290.4 131.98C291.711 133.006 283.304 141.349 279.274 143.215C275.244 145.082 262.252 140.162 261.967 133.797C261.683 127.432 264.193 122.104 266.17 121.832C268.148 121.561 284.677 115.912 284.677 115.912Z" fill="#FFCEA9"/>
<path d="M285.826 128.853C285.826 128.853 278.409 139.977 267.988 140.99C264.712 137.764 264.415 126.27 268.952 122.599C268.952 122.599 264.786 119.237 261.93 119.892C258.864 121.745 256.582 124.655 255.514 128.074C252.859 135.701 251.602 143.745 251.806 151.818C251.979 162.707 251.806 190.233 251.806 190.233C251.806 190.233 253.363 200.751 262.746 205.992C270.255 210.23 279.097 211.445 287.471 209.391C292.737 208.155 294.69 205.213 296.507 201.394C296.038 193.768 293.009 178.058 294.282 168.467C295.555 158.875 297.583 151.707 298.114 143.944C298.646 136.182 297.088 136.355 293.169 133.587C290.839 131.834 288.385 130.252 285.826 128.853Z" fill="#F4F4F4"/>
<path d="M288.225 221.219L288.212 222.591L253.648 242.676V241.304L288.225 221.219Z" fill="#1F232B"/>
<path d="M253.647 241.304V242.676L199.897 211.653L199.909 210.281L253.647 241.304Z" fill="#2D323E"/>
<path d="M288.225 221.219L253.648 241.304L199.909 210.281L234.474 190.196L288.225 221.219Z" fill="#323846"/>
<path d="M284.553 216.572L252.968 234.927L229.591 222.801L262.301 203.705L284.553 216.572Z" fill="#DADCE5"/>
<path d="M260.447 204.397L261.077 207.129L228.392 224.828L203.853 206.548L235.426 188.193L258.172 201.332C258.743 201.658 259.24 202.098 259.631 202.626C260.023 203.154 260.3 203.757 260.447 204.397Z" fill="#F4F6F9"/>
<path d="M261.201 204.434L261.188 208.538L230.295 225.57L229.628 222.777L261.201 204.434Z" fill="#DADCE5"/>
<path d="M252.968 234.927V239.042L228.416 224.865C228.413 224.446 228.522 224.034 228.73 223.67C228.938 223.306 229.239 223.004 229.602 222.795C229.965 222.585 230.377 222.475 230.797 222.476C231.216 222.477 231.627 222.59 231.989 222.801L252.968 234.927Z" fill="#E6E9EF"/>
<path d="M228.392 222.925V224.828L203.84 210.664V206.548L226.475 219.613C227.058 219.947 227.542 220.43 227.878 221.012C228.215 221.593 228.392 222.253 228.392 222.925Z" fill="#E6E9EF"/>
<path d="M250.594 205.658L250.013 205.992L231.457 195.288L231.754 195.115L232.038 194.942L250.594 205.658Z" fill="#C1C4D3"/>
<path d="M254.154 203.582L253.573 203.928L235.018 193.212L235.302 193.051L235.599 192.878L254.154 203.582Z" fill="#C1C4D3"/>
<path d="M247.046 207.722L246.44 208.068L227.885 197.352L228.194 197.179L228.491 197.006L247.046 207.722Z" fill="#C1C4D3"/>
<path d="M243.486 209.786L242.892 210.132L224.337 199.416L224.621 199.256L224.918 199.083L243.486 209.786Z" fill="#C1C4D3"/>
<path d="M239.926 211.85L239.332 212.196L220.776 201.493L221.073 201.32L221.37 201.147L239.926 211.85Z" fill="#C1C4D3"/>
<path d="M236.365 213.927L235.772 214.273L217.204 203.557L217.513 203.384L217.81 203.211L236.365 213.927Z" fill="#C1C4D3"/>
<path d="M232.805 215.991L232.212 216.337L213.656 205.621L213.953 205.448L214.249 205.287L232.805 215.991Z" fill="#C1C4D3"/>
<path d="M229.245 218.055L228.651 218.413L210.095 207.697L210.392 207.524L210.689 207.351L229.245 218.055Z" fill="#C1C4D3"/>
<path d="M277.939 217.758L277.346 218.092L258.803 207.388L259.099 207.215L259.396 207.055L277.939 217.758Z" fill="#C1C4D3"/>
<path d="M274.391 219.823L273.786 220.169L255.242 209.465L255.539 209.292L255.836 209.119L274.391 219.823Z" fill="#C1C4D3"/>
<path d="M270.819 221.887L270.238 222.233L251.682 211.529L251.979 211.356L252.275 211.183L270.819 221.887Z" fill="#C1C4D3"/>
<path d="M267.258 223.963L266.677 224.297L248.122 213.593L248.431 213.42L248.715 213.259L267.258 223.963Z" fill="#C1C4D3"/>
<path d="M260.138 228.091L259.557 228.438L241.013 217.734L241.298 217.561L241.594 217.388L260.138 228.091Z" fill="#C1C4D3"/>
<path d="M263.71 226.027L263.105 226.373L244.561 215.67L244.858 215.497L245.155 215.324L263.71 226.027Z" fill="#C1C4D3"/>
<path d="M256.577 230.168L255.996 230.514L237.441 219.798L237.737 219.625L238.034 219.464L256.577 230.168Z" fill="#C1C4D3"/>
<path d="M253.029 232.232L252.424 232.578L233.88 221.874L234.177 221.701L234.486 221.528L253.029 232.232Z" fill="#C1C4D3"/>
<path d="M284.553 216.572V220.688L253.029 239.042V234.926L284.553 216.572Z" fill="#C1C4D3"/>
<path d="M273.884 217.276C275.714 216.374 277.049 215.002 279.719 213.927C281.586 213.333 283.282 212.298 284.664 210.911C286.482 209.119 289.473 202.358 291.612 195.758C293.739 188.321 294.575 180.574 294.084 172.855C293.182 163.597 289.844 150.607 289.003 145.341C288.163 140.076 289.881 137.925 292.354 135.935C295.259 133.636 299.276 134.699 301.415 142.115C304.183 152.435 305.788 163.031 306.199 173.707C306.285 181.636 305.061 189.525 302.577 197.056C300.34 204.051 297.422 209.082 293.676 215.398C292.663 217.116 292.329 218.648 290.771 222.159C289.263 225.686 286.921 228.795 283.947 231.219C281.339 233.097 280.103 233.357 279.497 232.998C278.891 232.64 278.879 231.762 279.979 230.724C281.824 229.273 283.398 227.507 284.627 225.508C284.627 225.508 282.353 227.795 280.857 229.043C279.534 230.162 278.066 231.097 276.493 231.824C274.972 232.492 272.846 231.206 273.934 230.168C275.022 229.13 276.122 228.648 278.298 226.757C279.46 225.765 280.498 224.636 281.388 223.395C279.863 224.568 278.247 225.618 276.555 226.534C275.234 227.363 273.701 227.792 272.141 227.77C271.338 227.77 270.361 226.621 271.869 225.521C273.378 224.421 275.356 223.864 277.643 221.578C279.311 219.922 280.251 218.525 279.781 218.488C279.311 218.451 278.409 219.501 276.456 220.119C274.503 220.737 272.401 220.119 272.154 219.106C271.906 218.092 272.055 218.179 273.884 217.276Z" fill="#FFCEA9"/>
<path d="M261.448 100.61C262.684 92.6506 268.42 86.6066 276.629 87.0145C278.716 87.1311 280.76 87.6591 282.642 88.5682C284.525 89.4773 286.209 90.7495 287.598 92.3117C288.987 93.8739 290.054 95.6953 290.736 97.671C291.418 99.6467 291.704 101.738 291.575 103.824C291.439 106.24 290.746 108.593 289.549 110.696C288.353 112.8 286.685 114.598 284.677 115.949C284.4 117.155 283.985 118.324 283.44 119.435C280.535 122.834 271.758 124.935 269.224 124.577C265.985 124.107 264.279 122.76 262.684 119.212C259.928 112.909 260.842 104.553 261.448 100.61Z" fill="#FFCEA9"/>
<path d="M284.677 115.9L283.923 108.953C283.923 108.953 289.609 94.2574 276.184 97.0755C267.332 98.9418 265.058 99.7452 262.412 93.8124C259.767 87.8796 269.224 82.5277 280.511 84.0109C284.397 84.4191 287.988 86.2717 290.573 89.2017C293.158 92.1318 294.548 95.9256 294.468 99.8317C294.22 104.207 292.984 113.045 284.677 115.9Z" fill="#3A2C6D"/>
<path d="M307.646 155.798C307.646 155.798 300.327 163.078 291.661 160.977C290.425 160.136 287.446 143.116 287.446 143.116C287.446 143.116 287.446 133.686 294.678 133.933C301.91 134.18 307.646 155.798 307.646 155.798Z" fill="#EDEDED"/>
<path d="M252.349 141.67C252.349 141.67 248.53 141.485 246.947 139.198C247.232 135.391 252.115 120.918 261.93 119.843C259.239 121.713 257.103 124.275 255.749 127.259C254.006 131.659 252.349 141.67 252.349 141.67Z" fill="#EDEDED"/>
<path opacity="0.4" d="M257.43 613.464C279.544 613.464 297.472 603.116 297.472 590.351C297.472 577.586 279.544 567.237 257.43 567.237C235.316 567.237 217.389 577.586 217.389 590.351C217.389 603.116 235.316 613.464 257.43 613.464Z" fill="#D6D8E5"/>
<path d="M316.732 507.625L209.552 507.044L223.15 585.419C222.853 591.599 226.723 597.779 234.82 602.402C250.458 611.437 275.801 611.437 291.439 602.402C298.547 598.298 302.392 593.045 303.035 587.668L316.732 507.625Z" fill="#E2C979"/>
<path d="M263.142 537.005C292.773 537.005 316.794 523.143 316.794 506.043C316.794 488.943 292.773 475.081 263.142 475.081C233.511 475.081 209.49 488.943 209.49 506.043C209.49 523.143 233.511 537.005 263.142 537.005Z" fill="#EFDA86"/>
<path d="M263.142 530.244C250.001 530.244 237.737 527.352 228.626 522.086C220.814 517.513 216.338 511.704 216.338 506.043C216.338 500.382 220.826 494.573 228.639 490.062C237.75 484.809 250.001 481.916 263.154 481.916C276.307 481.916 288.558 484.809 297.669 490.062C305.482 494.573 309.97 500.407 309.97 506.055C309.97 511.704 305.495 517.526 297.669 522.025C288.546 527.29 276.295 530.244 263.142 530.244Z" fill="#28221C"/>
<path d="M286.222 481.645C286.986 471.224 285.329 460.767 281.381 451.093C277.433 441.418 271.301 432.788 263.463 425.876V425.802L263.302 425.654V425.95C255.462 432.86 249.327 441.49 245.376 451.165C241.426 460.84 239.768 471.297 240.531 481.719L209.885 478.826C222.829 527.599 263.5 523.397 263.5 523.397V523.31C266.566 523.545 304.506 525.51 316.917 478.715L286.222 481.645Z" fill="#99B524"/>
<path d="M263.463 523.434C263.463 523.434 260.719 485.464 209.712 459.891C209.712 459.891 197.634 522.976 263.463 523.434Z" fill="#A6CE28"/>
<path d="M263.142 523.434C263.142 523.434 265.886 485.464 316.893 459.891C316.893 459.891 328.97 522.976 263.142 523.434Z" fill="#A6CE28"/>
<path d="M263.389 4.47427V10.0116L268.173 7.23055L263.389 4.47427Z" fill="#C1C4D3"/>
<path d="M211.554 34.6204V40.1576L216.338 37.3766L211.554 34.6204Z" fill="#C1C4D3"/>
</g>
</svg>
