<svg width="128" height="86" viewBox="0 0 128 86" fill="none" xmlns="http://www.w3.org/2000/svg">
<path d="M21.888 29.12C24.832 29.12 27.4987 29.888 29.888 31.424C32.2773 32.9173 34.1547 35.008 35.52 37.696C36.928 40.384 37.632 43.4347 37.632 46.848C37.632 50.2613 36.9493 53.3333 35.584 56.064C34.2187 58.752 32.3413 60.864 29.952 62.4C27.6053 63.8933 25.0027 64.64 22.144 64.64C20.096 64.64 18.1547 64.2347 16.32 63.424C14.528 62.5707 13.0347 61.5467 11.84 60.352V60.736C11.84 61.8453 11.4773 62.784 10.752 63.552C10.0267 64.2773 9.10933 64.64 8 64.64C6.89067 64.64 5.97333 64.2773 5.248 63.552C4.52267 62.8267 4.16 61.888 4.16 60.736V20.544C4.16 19.4347 4.52267 18.5173 5.248 17.792C5.97333 17.024 6.89067 16.64 8 16.64C9.10933 16.64 10.0267 17.024 10.752 17.792C11.4773 18.5173 11.84 19.4347 11.84 20.544V33.92C12.864 32.64 14.2933 31.5307 16.128 30.592C17.9627 29.6107 19.8827 29.12 21.888 29.12ZM20.928 57.6C23.6587 57.6 25.8987 56.576 27.648 54.528C29.3973 52.48 30.272 49.92 30.272 46.848C30.272 43.776 29.3973 41.2373 27.648 39.232C25.9413 37.184 23.7013 36.16 20.928 36.16C18.1547 36.16 15.8933 37.184 14.144 39.232C12.3947 41.2373 11.52 43.776 11.52 46.848C11.52 49.92 12.3947 52.48 14.144 54.528C15.8933 56.576 18.1547 57.6 20.928 57.6ZM51.267 60.096C51.267 61.2053 50.9043 62.144 50.179 62.912C49.4537 63.6373 48.5363 64 47.427 64C46.3177 64 45.4003 63.6373 44.675 62.912C43.9497 62.144 43.587 61.2053 43.587 60.096V33.664C43.587 32.5547 43.9497 31.6373 44.675 30.912C45.4003 30.144 46.3177 29.76 47.427 29.76C48.5363 29.76 49.4537 30.144 50.179 30.912C50.9043 31.6373 51.267 32.5547 51.267 33.664V60.096ZM47.363 25.6C45.9123 25.6 44.8883 25.3653 44.291 24.896C43.6937 24.4267 43.395 23.5947 43.395 22.4V21.184C43.395 19.9893 43.715 19.1573 44.355 18.688C44.995 18.2187 46.019 17.984 47.427 17.984C48.9203 17.984 49.9657 18.2187 50.563 18.688C51.1603 19.1573 51.459 19.9893 51.459 21.184V22.4C51.459 23.6373 51.139 24.4907 50.499 24.96C49.9017 25.3867 48.8563 25.6 47.363 25.6ZM76.888 29.12C79.832 29.12 82.4987 29.888 84.888 31.424C87.2773 32.9173 89.1547 35.008 90.52 37.696C91.928 40.384 92.632 43.4347 92.632 46.848C92.632 50.2613 91.9493 53.3333 90.584 56.064C89.2187 58.752 87.3413 60.864 84.952 62.4C82.6053 63.8933 80.0027 64.64 77.144 64.64C75.096 64.64 73.1547 64.2347 71.32 63.424C69.528 62.5707 68.0347 61.5467 66.84 60.352V60.736C66.84 61.8453 66.4773 62.784 65.752 63.552C65.0267 64.2773 64.1093 64.64 63 64.64C61.8907 64.64 60.9733 64.2773 60.248 63.552C59.5227 62.8267 59.16 61.888 59.16 60.736V20.544C59.16 19.4347 59.5227 18.5173 60.248 17.792C60.9733 17.024 61.8907 16.64 63 16.64C64.1093 16.64 65.0267 17.024 65.752 17.792C66.4773 18.5173 66.84 19.4347 66.84 20.544V33.92C67.864 32.64 69.2933 31.5307 71.128 30.592C72.9627 29.6107 74.8827 29.12 76.888 29.12ZM75.928 57.6C78.6587 57.6 80.8987 56.576 82.648 54.528C84.3973 52.48 85.272 49.92 85.272 46.848C85.272 43.776 84.3973 41.2373 82.648 39.232C80.9413 37.184 78.7013 36.16 75.928 36.16C73.1547 36.16 70.8933 37.184 69.144 39.232C67.3947 41.2373 66.52 43.776 66.52 46.848C66.52 49.92 67.3947 52.48 69.144 54.528C70.8933 56.576 73.1547 57.6 75.928 57.6ZM107.355 60.096C107.355 61.2053 106.971 62.144 106.203 62.912C105.478 63.6373 104.56 64 103.451 64C102.384 64 101.488 63.6373 100.763 62.912C100.038 62.144 99.675 61.2053 99.675 60.096V20.544C99.675 19.4347 100.038 18.5173 100.763 17.792C101.531 17.024 102.47 16.64 103.579 16.64C104.646 16.64 105.542 17.024 106.267 17.792C106.992 18.5173 107.355 19.4347 107.355 20.544V60.096ZM123.517 60.096C123.517 61.2053 123.154 62.144 122.429 62.912C121.704 63.6373 120.786 64 119.677 64C118.568 64 117.65 63.6373 116.925 62.912C116.2 62.144 115.837 61.2053 115.837 60.096V33.664C115.837 32.5547 116.2 31.6373 116.925 30.912C117.65 30.144 118.568 29.76 119.677 29.76C120.786 29.76 121.704 30.144 122.429 30.912C123.154 31.6373 123.517 32.5547 123.517 33.664V60.096ZM119.613 25.6C118.162 25.6 117.138 25.3653 116.541 24.896C115.944 24.4267 115.645 23.5947 115.645 22.4V21.184C115.645 19.9893 115.965 19.1573 116.605 18.688C117.245 18.2187 118.269 17.984 119.677 17.984C121.17 17.984 122.216 18.2187 122.813 18.688C123.41 19.1573 123.709 19.9893 123.709 21.184V22.4C123.709 23.6373 123.389 24.4907 122.749 24.96C122.152 25.3867 121.106 25.6 119.613 25.6Z" fill="#8E66FF"/>
<circle cx="19.5" cy="48.5" r="3.5" fill="#1F232B"/>
<circle cx="74.5" cy="48.5" r="3.5" fill="#1F232B"/>
<path d="M54 81C49.6267 79.5174 35.9999 88.5 45.5 71.5" stroke="#252935" stroke-width="6" stroke-linecap="round" stroke-linejoin="round"/>
</svg>
